<svg width="640" height="717" viewBox="0 0 640 717" fill="none" xmlns="http://www.w3.org/2000/svg">
<path d="M301.231 350.83C285.541 350.452 268.787 345.4 251.168 335.228C199.888 305.621 179.549 267.424 236.709 168.419L420.288 -149.548L254.961 -245L70.0484 75.2778C-27.8532 244.848 6.53946 394.371 164.401 485.513C212.282 513.157 253.264 526.272 299.265 529.516C283.077 474.429 283.393 414.207 301.218 350.853" fill="currentColor"/>
<path d="M570.6 361.102L754.178 43.1351L588.852 -52.3164L403.926 267.984C306.05 437.51 340.475 587.081 498.292 678.196L563.814 716.026L650.555 565.785L585.033 527.956C533.753 498.349 513.427 460.13 570.587 361.124" fill="currentColor"/>
</svg>
