<svg width="382" height="376" viewBox="0 0 382 376" fill="none" xmlns="http://www.w3.org/2000/svg">
<g filter="url(#filter0_di_1351_34046)">
<path d="M46 67.2548C46 36.022 46 20.4056 55.7028 10.7028C65.4056 1 81.0219 1 112.255 1H270.068C301.301 1 316.917 1 326.62 10.7028C336.323 20.4056 336.323 36.0219 336.323 67.2547V184.001C336.323 215.234 336.323 230.85 326.62 240.553C316.917 250.256 301.301 250.256 270.068 250.256H147.297C143.644 250.256 141.818 250.256 140.683 251.39C139.548 252.525 139.548 254.352 139.548 258.004V272.142C139.548 279.417 139.548 283.054 137.292 284.092C135.036 285.129 132.275 282.76 126.754 278.024L95.9111 251.563C95.4815 251.195 95.2668 251.01 95.0347 250.862C94.5695 250.566 94.0465 250.372 93.5005 250.295C93.2281 250.256 92.9451 250.256 92.3791 250.256V250.256C80.0465 250.256 73.8802 250.256 68.8898 248.634C58.8051 245.357 50.8985 237.451 47.6216 227.366C46 222.375 46 216.209 46 203.876V67.2548Z" fill="#EBEBEB"/>
</g>
<g filter="url(#filter1_f_1351_34046)">
<line x1="77.8367" y1="49.5732" x2="77.8367" y2="202.107" stroke="white" stroke-width="10.2906"/>
</g>
<g filter="url(#filter2_f_1351_34046)">
<line x1="302.825" y1="50.8445" x2="302.825" y2="203.378" stroke="white" stroke-width="10.2906"/>
</g>
<g filter="url(#filter3_f_1351_34046)">
<line x1="101.93" y1="18.1281" x2="274.801" y2="18.1281" stroke="white" stroke-width="8.41955"/>
</g>
<g filter="url(#filter4_i_1351_34046)">
<path d="M109.771 125.427H102.909L102.886 120.562H108.715C109.633 120.562 110.382 120.409 110.964 120.103C111.561 119.782 111.997 119.315 112.272 118.703C112.563 118.076 112.708 117.311 112.708 116.408C112.708 115.398 112.57 114.588 112.295 113.976C112.035 113.348 111.614 112.889 111.033 112.599C110.467 112.308 109.717 112.163 108.784 112.163H105.204V140H98.4795V106.586H108.784C110.451 106.586 111.943 106.77 113.259 107.137C114.575 107.504 115.684 108.062 116.586 108.812C117.504 109.562 118.208 110.51 118.698 111.658C119.187 112.805 119.432 114.159 119.432 115.72C119.432 117.097 119.157 118.367 118.606 119.529C118.055 120.692 117.191 121.648 116.013 122.398C114.85 123.132 113.328 123.538 111.446 123.614L109.771 125.427ZM109.518 140H101.004L103.689 134.446H109.518C110.421 134.446 111.14 134.255 111.675 133.873C112.211 133.49 112.601 132.978 112.846 132.335C113.106 131.677 113.236 130.927 113.236 130.086C113.236 129.137 113.121 128.311 112.892 127.607C112.677 126.904 112.318 126.368 111.813 126.001C111.308 125.618 110.627 125.427 109.771 125.427H103.987L104.033 120.562H111.056L112.639 122.49C114.429 122.429 115.86 122.773 116.931 123.522C118.002 124.257 118.767 125.221 119.226 126.414C119.7 127.592 119.937 128.847 119.937 130.178C119.937 132.32 119.532 134.125 118.721 135.594C117.925 137.047 116.755 138.149 115.209 138.898C113.664 139.633 111.767 140 109.518 140ZM148.348 120.7V126.276C148.348 128.632 148.057 130.698 147.476 132.473C146.91 134.232 146.099 135.708 145.043 136.902C144.003 138.08 142.741 138.967 141.257 139.564C139.788 140.161 138.159 140.459 136.369 140.459C134.579 140.459 132.942 140.161 131.458 139.564C129.989 138.967 128.719 138.08 127.648 136.902C126.592 135.708 125.774 134.232 125.192 132.473C124.611 130.698 124.32 128.632 124.32 126.276V120.7C124.32 118.282 124.603 116.171 125.169 114.366C125.736 112.545 126.554 111.03 127.625 109.822C128.696 108.598 129.966 107.68 131.435 107.068C132.903 106.441 134.533 106.127 136.323 106.127C138.113 106.127 139.742 106.441 141.211 107.068C142.68 107.68 143.95 108.598 145.021 109.822C146.091 111.03 146.91 112.545 147.476 114.366C148.057 116.171 148.348 118.282 148.348 120.7ZM141.67 126.276V120.654C141.67 119.063 141.555 117.709 141.326 116.592C141.096 115.46 140.752 114.534 140.293 113.815C139.834 113.096 139.276 112.568 138.618 112.231C137.96 111.895 137.195 111.727 136.323 111.727C135.451 111.727 134.678 111.895 134.005 112.231C133.347 112.568 132.789 113.096 132.33 113.815C131.886 114.534 131.549 115.46 131.32 116.592C131.106 117.709 130.999 119.063 130.999 120.654V126.276C130.999 127.806 131.113 129.114 131.343 130.201C131.572 131.287 131.917 132.174 132.375 132.863C132.834 133.551 133.393 134.064 134.051 134.4C134.724 134.722 135.497 134.882 136.369 134.882C137.225 134.882 137.983 134.722 138.641 134.4C139.314 134.064 139.872 133.551 140.316 132.863C140.76 132.174 141.096 131.287 141.326 130.201C141.555 129.114 141.67 127.806 141.67 126.276ZM176.599 106.586V140H170.104L159.616 119.093V140H153.236V106.586H159.639L170.219 127.722V106.586H176.599ZM193.007 129.696V106.586H199.708V129.696C199.708 131.93 199.28 133.857 198.423 135.479C197.582 137.085 196.434 138.317 194.981 139.174C193.528 140.031 191.89 140.459 190.07 140.459C188.203 140.459 186.536 140.092 185.067 139.357C183.613 138.608 182.466 137.468 181.625 135.938C180.783 134.408 180.362 132.473 180.362 130.132H187.109C187.109 131.325 187.232 132.266 187.477 132.955C187.721 133.643 188.066 134.14 188.509 134.446C188.968 134.752 189.488 134.905 190.07 134.905C190.697 134.905 191.225 134.699 191.653 134.286C192.097 133.873 192.434 133.284 192.663 132.519C192.893 131.738 193.007 130.797 193.007 129.696ZM228.533 120.7V126.276C228.533 128.632 228.242 130.698 227.661 132.473C227.095 134.232 226.284 135.708 225.228 136.902C224.188 138.08 222.925 138.967 221.441 139.564C219.973 140.161 218.343 140.459 216.553 140.459C214.763 140.459 213.126 140.161 211.642 139.564C210.173 138.967 208.903 138.08 207.833 136.902C206.777 135.708 205.958 134.232 205.377 132.473C204.796 130.698 204.505 128.632 204.505 126.276V120.7C204.505 118.282 204.788 116.171 205.354 114.366C205.92 112.545 206.739 111.03 207.81 109.822C208.881 108.598 210.15 107.68 211.619 107.068C213.088 106.441 214.717 106.127 216.507 106.127C218.297 106.127 219.927 106.441 221.396 107.068C222.864 107.68 224.134 108.598 225.205 109.822C226.276 111.03 227.095 112.545 227.661 114.366C228.242 116.171 228.533 118.282 228.533 120.7ZM221.854 126.276V120.654C221.854 119.063 221.74 117.709 221.51 116.592C221.281 115.46 220.937 114.534 220.478 113.815C220.019 113.096 219.46 112.568 218.802 112.231C218.144 111.895 217.379 111.727 216.507 111.727C215.635 111.727 214.863 111.895 214.189 112.231C213.532 112.568 212.973 113.096 212.514 113.815C212.07 114.534 211.734 115.46 211.504 116.592C211.29 117.709 211.183 119.063 211.183 120.654V126.276C211.183 127.806 211.298 129.114 211.527 130.201C211.757 131.287 212.101 132.174 212.56 132.863C213.019 133.551 213.577 134.064 214.235 134.4C214.909 134.722 215.681 134.882 216.553 134.882C217.41 134.882 218.167 134.722 218.825 134.4C219.498 134.064 220.057 133.551 220.5 132.863C220.944 132.174 221.281 131.287 221.51 130.201C221.74 129.114 221.854 127.806 221.854 126.276ZM248.43 106.586H255.131V129.535C255.131 132.105 254.657 134.201 253.708 135.823C252.775 137.43 251.482 138.608 249.83 139.357C248.177 140.092 246.288 140.459 244.161 140.459C242.019 140.459 240.114 140.092 238.447 139.357C236.779 138.608 235.479 137.43 234.545 135.823C233.627 134.201 233.168 132.105 233.168 129.535V106.586H239.87V129.535C239.87 130.989 240.03 132.105 240.352 132.886C240.688 133.666 241.17 134.201 241.797 134.492C242.44 134.768 243.228 134.905 244.161 134.905C245.11 134.905 245.89 134.768 246.502 134.492C247.129 134.201 247.604 133.666 247.925 132.886C248.261 132.105 248.43 130.989 248.43 129.535V106.586ZM260.294 106.586H271.012C273.245 106.586 275.15 106.968 276.726 107.733C278.302 108.498 279.511 109.631 280.352 111.13C281.194 112.629 281.614 114.48 281.614 116.684C281.614 118.489 281.369 120.034 280.88 121.319C280.39 122.589 279.694 123.653 278.792 124.509C277.889 125.351 276.81 126.024 275.556 126.529L273.513 127.745H264.815L264.792 122.168H270.828C271.746 122.168 272.503 121.97 273.1 121.572C273.712 121.159 274.163 120.585 274.454 119.851C274.76 119.101 274.913 118.229 274.913 117.234C274.913 116.179 274.775 115.276 274.5 114.526C274.24 113.761 273.819 113.18 273.238 112.782C272.672 112.369 271.93 112.163 271.012 112.163H267.019V140H260.294V106.586ZM275.464 140L269.336 125.106L276.382 125.083L282.647 139.679V140H275.464Z" fill="black"/>
</g>
<defs>
<filter id="filter0_di_1351_34046" x="0.614529" y="-14.8321" width="381.095" height="389.935" filterUnits="userSpaceOnUse" color-interpolation-filters="sRGB">
<feFlood flood-opacity="0" result="BackgroundImageFix"/>
<feColorMatrix in="SourceAlpha" type="matrix" values="0 0 0 0 0 0 0 0 0 0 0 0 0 0 0 0 0 0 127 0" result="hardAlpha"/>
<feOffset dy="45.3855"/>
<feGaussianBlur stdDeviation="22.6927"/>
<feColorMatrix type="matrix" values="0 0 0 0 0 0 0 0 0 0 0 0 0 0 0 0 0 0 0.15 0"/>
<feBlend mode="normal" in2="BackgroundImageFix" result="effect1_dropShadow_1351_34046"/>
<feBlend mode="normal" in="SourceGraphic" in2="effect1_dropShadow_1351_34046" result="shape"/>
<feColorMatrix in="SourceAlpha" type="matrix" values="0 0 0 0 0 0 0 0 0 0 0 0 0 0 0 0 0 0 127 0" result="hardAlpha"/>
<feOffset dy="-15.8321"/>
<feGaussianBlur stdDeviation="15.8321"/>
<feComposite in2="hardAlpha" operator="arithmetic" k2="-1" k3="1"/>
<feColorMatrix type="matrix" values="0 0 0 0 0 0 0 0 0 0 0 0 0 0 0 0 0 0 0.25 0"/>
<feBlend mode="normal" in2="shape" result="effect2_innerShadow_1351_34046"/>
</filter>
<filter id="filter1_f_1351_34046" x="59.5943" y="36.4762" width="36.4832" height="178.728" filterUnits="userSpaceOnUse" color-interpolation-filters="sRGB">
<feFlood flood-opacity="0" result="BackgroundImageFix"/>
<feBlend mode="normal" in="SourceGraphic" in2="BackgroundImageFix" result="shape"/>
<feGaussianBlur stdDeviation="6.54854" result="effect1_foregroundBlur_1351_34046"/>
</filter>
<filter id="filter2_f_1351_34046" x="284.583" y="37.7474" width="36.4832" height="178.728" filterUnits="userSpaceOnUse" color-interpolation-filters="sRGB">
<feFlood flood-opacity="0" result="BackgroundImageFix"/>
<feBlend mode="normal" in="SourceGraphic" in2="BackgroundImageFix" result="shape"/>
<feGaussianBlur stdDeviation="6.54854" result="effect1_foregroundBlur_1351_34046"/>
</filter>
<filter id="filter3_f_1351_34046" x="88.8326" y="0.821378" width="199.065" height="34.6136" filterUnits="userSpaceOnUse" color-interpolation-filters="sRGB">
<feFlood flood-opacity="0" result="BackgroundImageFix"/>
<feBlend mode="normal" in="SourceGraphic" in2="BackgroundImageFix" result="shape"/>
<feGaussianBlur stdDeviation="6.54854" result="effect1_foregroundBlur_1351_34046"/>
</filter>
<filter id="filter4_i_1351_34046" x="98.4805" y="74.1255" width="184.168" height="66.3335" filterUnits="userSpaceOnUse" color-interpolation-filters="sRGB">
<feFlood flood-opacity="0" result="BackgroundImageFix"/>
<feBlend mode="normal" in="SourceGraphic" in2="BackgroundImageFix" result="shape"/>
<feColorMatrix in="SourceAlpha" type="matrix" values="0 0 0 0 0 0 0 0 0 0 0 0 0 0 0 0 0 0 127 0" result="hardAlpha"/>
<feOffset dy="-32.0015"/>
<feGaussianBlur stdDeviation="16.0007"/>
<feComposite in2="hardAlpha" operator="arithmetic" k2="-1" k3="1"/>
<feColorMatrix type="matrix" values="0 0 0 0 0 0 0 0 0 0 0 0 0 0 0 0 0 0 0.25 0"/>
<feBlend mode="normal" in2="shape" result="effect1_innerShadow_1351_34046"/>
</filter>
</defs>
</svg>
