<svg width="20" height="20" viewBox="0 0 20 20" fill="none" xmlns="http://www.w3.org/2000/svg">
<g clip-path="url(#clip0_528_10025)">
<path d="M17.0714 2.18571H15.8857V1.64286C15.8857 1.23245 15.5533 0.9 15.1429 0.9C14.7324 0.9 14.4 1.23245 14.4 1.64286V2.18571H5.6V1.64286C5.6 1.23245 5.26755 0.9 4.85714 0.9C4.44673 0.9 4.11429 1.23245 4.11429 1.64286V2.18571H2.92857C1.80862 2.18571 0.9 3.09433 0.9 4.21429V17.0714C0.9 18.1914 1.80862 19.1 2.92857 19.1H17.0714C18.1914 19.1 19.1 18.1914 19.1 17.0714V4.21429C19.1 3.09433 18.1914 2.18571 17.0714 2.18571ZM2.38571 4.21429C2.38571 3.91433 2.62862 3.67143 2.92857 3.67143H4.11429V4.21429C4.11429 4.6247 4.44673 4.95714 4.85714 4.95714C5.26755 4.95714 5.6 4.6247 5.6 4.21429V3.67143H14.4V4.21429C14.4 4.6247 14.7324 4.95714 15.1429 4.95714C15.5533 4.95714 15.8857 4.6247 15.8857 4.21429V3.67143H17.0714C17.2154 3.67143 17.3539 3.7285 17.4555 3.83018C17.5572 3.93186 17.6143 4.07031 17.6143 4.21429V6.04286H2.38571V4.21429ZM17.6143 17.0714C17.6143 17.2154 17.5572 17.3539 17.4555 17.4555C17.3539 17.5572 17.2154 17.6143 17.0714 17.6143H2.92857C2.62862 17.6143 2.38571 17.3714 2.38571 17.0714V7.52857H17.6143V17.0714Z" fill="black" stroke="black" stroke-width="0.2"/>
</g>
<defs>
<clipPath id="clip0_528_10025">
<rect width="20" height="20" fill="white"/>
</clipPath>
</defs>
</svg>
