<svg width="24" height="24" viewBox="0 0 24 24" fill="none" xmlns="http://www.w3.org/2000/svg">
<path fill-rule="evenodd" clip-rule="evenodd" d="M4.6 14V12.4H3C2.77909 12.4 2.6 12.2209 2.6 12V4C2.6 3.77909 2.77909 3.6 3 3.6H14C14.2209 3.6 14.4 3.77909 14.4 4V12C14.4 12.2209 14.2209 12.4 14 12.4H7.8H7.22072L6.77571 12.7708L4.6 14.5839V14ZM3 18L4.6 16.6667L7.8 14H14C15.1046 14 16 13.1046 16 12V4C16 2.89543 15.1046 2 14 2H3C1.89543 2 1 2.89543 1 4V12C1 13.1046 1.89543 14 3 14V15.6V15.9173L3 18ZM8 17V16H9.6V17C9.6 17.2209 9.77909 17.4 10 17.4H11H12.6V19V19.5839L14.7757 17.7708L15.2207 17.4H15.8H21C21.2209 17.4 21.4 17.2209 21.4 17V9C21.4 8.77909 21.2209 8.6 21 8.6H18V7H21C22.1046 7 23 7.89543 23 9V17C23 18.1046 22.1046 19 21 19H15.8L12.6 21.6667L11 23V20.9173V20.6V19H10C8.89543 19 8 18.1046 8 17ZM3.7 6.5C3.7 6.05817 4.05817 5.7 4.5 5.7H12.5C12.9418 5.7 13.3 6.05817 13.3 6.5C13.3 6.94183 12.9418 7.3 12.5 7.3H4.5C4.05817 7.3 3.7 6.94183 3.7 6.5ZM4.5 9.2C4.05817 9.2 3.7 9.55817 3.7 10C3.7 10.4418 4.05817 10.8 4.5 10.8H12.5C12.9418 10.8 13.3 10.4418 13.3 10C13.3 9.55817 12.9418 9.2 12.5 9.2H4.5Z" fill="black"/>
</svg>
