<svg width="382" height="376" viewBox="0 0 382 376" fill="none" xmlns="http://www.w3.org/2000/svg">
<g filter="url(#filter0_di_522_31534)">
<path d="M46 67.2548C46 36.022 46 20.4056 55.7028 10.7028C65.4056 1 81.0219 1 112.255 1H270.068C301.301 1 316.917 1 326.62 10.7028C336.323 20.4056 336.323 36.0219 336.323 67.2547V184.001C336.323 215.234 336.323 230.85 326.62 240.553C316.917 250.256 301.301 250.256 270.068 250.256H147.297C143.644 250.256 141.818 250.256 140.683 251.39C139.548 252.525 139.548 254.352 139.548 258.004V272.142C139.548 279.417 139.548 283.054 137.292 284.092C135.036 285.129 132.275 282.76 126.754 278.024L95.9111 251.563C95.4815 251.195 95.2668 251.01 95.0347 250.862C94.5695 250.566 94.0465 250.372 93.5005 250.295C93.2281 250.256 92.9451 250.256 92.3791 250.256C80.0465 250.256 73.8802 250.256 68.8898 248.634C58.8051 245.357 50.8985 237.451 47.6216 227.366C46 222.375 46 216.209 46 203.876V67.2548Z" fill="#EBEBEB"/>
</g>
<g filter="url(#filter1_f_522_31534)">
<line x1="77.8367" y1="49.5742" x2="77.8367" y2="202.108" stroke="white" stroke-width="10.2906"/>
</g>
<g filter="url(#filter2_f_522_31534)">
<line x1="302.825" y1="50.8438" x2="302.825" y2="203.377" stroke="white" stroke-width="10.2906"/>
</g>
<g filter="url(#filter3_f_522_31534)">
<line x1="101.93" y1="18.1262" x2="274.801" y2="18.1262" stroke="white" stroke-width="8.41955"/>
</g>
<g filter="url(#filter4_i_522_31534)">
<path d="M155.542 100.856L163.094 102.584C160.406 112.696 155.862 122.744 150.742 129.08C149.398 127.736 146.326 125.24 144.598 124.088C149.462 118.584 153.366 109.752 155.542 100.856ZM153.75 129.336L161.174 130.872C159.382 139 156.054 147.192 152.47 152.376C150.998 151.16 147.734 149.176 145.942 148.216C149.526 143.736 152.278 136.44 153.75 129.336ZM156.95 112.12H183.19V119.224H154.07L156.95 112.12ZM164.31 115.256H171.926V152.184C171.926 155.896 171.286 158.008 168.982 159.288C166.742 160.504 163.606 160.824 159.51 160.824C159.126 158.584 157.974 155.192 156.886 153.08C159.574 153.208 162.262 153.144 163.158 153.144C163.99 153.144 164.31 152.952 164.31 152.12V115.256ZM174.166 131L181.078 128.696C184.406 135.288 187.158 143.8 188.054 149.624L180.694 152.184C179.99 146.424 177.302 137.592 174.166 131ZM181.142 112.12H182.166L183.382 111.928L188.758 112.888C187.99 118.136 186.838 124.088 186.006 127.928L179.414 126.776C179.99 123.32 180.694 117.624 181.142 113.144V112.12ZM141.846 100.92L149.078 103.16C144.918 114.104 138.262 125.624 131.286 132.92C130.582 131.064 128.534 126.84 127.19 124.984C133.014 119.16 138.582 110.072 141.846 100.92ZM135.638 118.584L142.934 111.288L142.998 111.352V160.696H135.638V118.584ZM219.606 103.864H245.59V110.968H219.606V103.864ZM217.43 126.136H252.758V133.368H217.43V126.136ZM230.934 118.648H238.678V152.248C238.678 156.088 237.91 158.136 235.414 159.352C232.854 160.504 229.334 160.76 224.598 160.696C224.214 158.584 222.934 155.256 221.91 153.208C225.174 153.336 228.502 153.4 229.59 153.336C230.614 153.272 230.934 153.016 230.934 152.12V118.648ZM242.838 103.864H244.694L246.294 103.48L251.286 107.256C247.51 112.824 242.07 119.608 237.078 123.832C236.054 122.488 233.942 120.376 232.726 119.352C236.502 115.704 240.918 109.368 242.838 105.528V103.864ZM193.046 113.4H213.718V120.504H193.046V113.4ZM201.622 100.664L208.854 101.432C206.422 115.064 202.71 132.216 199.702 143.736L193.43 140.408C196.182 130.296 199.638 113.4 201.622 100.664ZM196.758 139.32L200.982 133.944C207.638 138.104 216.086 144.312 219.798 149.112L215.19 155.32C211.606 150.456 203.478 143.736 196.758 139.32ZM211.094 113.4H212.31L213.654 113.208L218.198 113.976C216.726 138.936 210.518 153.08 197.846 160.952C196.822 159.096 194.774 156.344 193.238 154.872C204.118 149.176 209.814 135.032 211.094 114.808V113.4Z" fill="black"/>
</g>
<defs>
<filter id="filter0_di_522_31534" x="0.614529" y="-14.8321" width="381.093" height="389.935" filterUnits="userSpaceOnUse" color-interpolation-filters="sRGB">
<feFlood flood-opacity="0" result="BackgroundImageFix"/>
<feColorMatrix in="SourceAlpha" type="matrix" values="0 0 0 0 0 0 0 0 0 0 0 0 0 0 0 0 0 0 127 0" result="hardAlpha"/>
<feOffset dy="45.3855"/>
<feGaussianBlur stdDeviation="22.6927"/>
<feColorMatrix type="matrix" values="0 0 0 0 0 0 0 0 0 0 0 0 0 0 0 0 0 0 0.15 0"/>
<feBlend mode="normal" in2="BackgroundImageFix" result="effect1_dropShadow_522_31534"/>
<feBlend mode="normal" in="SourceGraphic" in2="effect1_dropShadow_522_31534" result="shape"/>
<feColorMatrix in="SourceAlpha" type="matrix" values="0 0 0 0 0 0 0 0 0 0 0 0 0 0 0 0 0 0 127 0" result="hardAlpha"/>
<feOffset dy="-15.8321"/>
<feGaussianBlur stdDeviation="15.8321"/>
<feComposite in2="hardAlpha" operator="arithmetic" k2="-1" k3="1"/>
<feColorMatrix type="matrix" values="0 0 0 0 0 0 0 0 0 0 0 0 0 0 0 0 0 0 0.25 0"/>
<feBlend mode="normal" in2="shape" result="effect2_innerShadow_522_31534"/>
</filter>
<filter id="filter1_f_522_31534" x="59.5943" y="36.4771" width="36.4852" height="178.729" filterUnits="userSpaceOnUse" color-interpolation-filters="sRGB">
<feFlood flood-opacity="0" result="BackgroundImageFix"/>
<feBlend mode="normal" in="SourceGraphic" in2="BackgroundImageFix" result="shape"/>
<feGaussianBlur stdDeviation="6.54854" result="effect1_foregroundBlur_522_31534"/>
</filter>
<filter id="filter2_f_522_31534" x="284.583" y="37.7467" width="36.4852" height="178.729" filterUnits="userSpaceOnUse" color-interpolation-filters="sRGB">
<feFlood flood-opacity="0" result="BackgroundImageFix"/>
<feBlend mode="normal" in="SourceGraphic" in2="BackgroundImageFix" result="shape"/>
<feGaussianBlur stdDeviation="6.54854" result="effect1_foregroundBlur_522_31534"/>
</filter>
<filter id="filter3_f_522_31534" x="88.8326" y="0.820889" width="199.065" height="34.6121" filterUnits="userSpaceOnUse" color-interpolation-filters="sRGB">
<feFlood flood-opacity="0" result="BackgroundImageFix"/>
<feBlend mode="normal" in="SourceGraphic" in2="BackgroundImageFix" result="shape"/>
<feGaussianBlur stdDeviation="6.54854" result="effect1_foregroundBlur_522_31534"/>
</filter>
<filter id="filter4_i_522_31534" x="127.189" y="68.6626" width="125.568" height="92.2905" filterUnits="userSpaceOnUse" color-interpolation-filters="sRGB">
<feFlood flood-opacity="0" result="BackgroundImageFix"/>
<feBlend mode="normal" in="SourceGraphic" in2="BackgroundImageFix" result="shape"/>
<feColorMatrix in="SourceAlpha" type="matrix" values="0 0 0 0 0 0 0 0 0 0 0 0 0 0 0 0 0 0 127 0" result="hardAlpha"/>
<feOffset dy="-32.0015"/>
<feGaussianBlur stdDeviation="16.0007"/>
<feComposite in2="hardAlpha" operator="arithmetic" k2="-1" k3="1"/>
<feColorMatrix type="matrix" values="0 0 0 0 0 0 0 0 0 0 0 0 0 0 0 0 0 0 0.25 0"/>
<feBlend mode="normal" in2="shape" result="effect1_innerShadow_522_31534"/>
</filter>
</defs>
</svg>
