<svg width="20" height="20" viewBox="0 0 20 20" fill="none" xmlns="http://www.w3.org/2000/svg">
<g clip-path="url(#clip0_1762_8433)">
<path fill-rule="evenodd" clip-rule="evenodd" d="M10 18C14.4183 18 18 14.4183 18 10C18 5.58172 14.4183 2 10 2C5.58172 2 2 5.58172 2 10C2 14.4183 5.58172 18 10 18ZM10 20C15.5228 20 20 15.5228 20 10C20 4.47715 15.5228 0 10 0C4.47715 0 0 4.47715 0 10C0 15.5228 4.47715 20 10 20Z" fill="#F60C36"/>
<path d="M11.9844 13.2236L10.1181 11.3573L8.23772 13.2377L6.88042 11.8804L8.76085 10L6.88042 8.11958L8.23772 6.76228L10.1181 8.6427L11.9844 6.77642L13.3417 8.13372L11.4754 10L13.3417 11.8663L11.9844 13.2236Z" fill="#F60C36"/>
</g>
<defs>
<clipPath id="clip0_1762_8433">
<rect width="20" height="20" fill="white"/>
</clipPath>
</defs>
</svg>
