<svg width="20" height="20" viewBox="0 0 20 20" fill="none" xmlns="http://www.w3.org/2000/svg">
<path fill-rule="evenodd" clip-rule="evenodd" d="M10.0007 3C6.29877 3.00028 2.88295 5.54931 1.068 9.66497C0.977369 9.87036 0.977369 10.1213 1.06778 10.3268C2.88074 14.4457 6.29715 16.9979 10.0005 17C13.7024 16.9982 17.1186 14.4476 18.9321 10.3307C19.0226 10.1254 19.0226 9.87443 18.9321 9.6689C17.1185 5.55217 13.7026 3.00214 10.0007 3ZM10.0005 4.35076C13.2215 4.35229 16.1966 6.50173 17.8574 10.0002C16.1967 13.4986 13.2218 15.6475 10.001 15.6493C6.77911 15.6478 3.80296 13.4969 2.14241 9.99628C3.80422 6.49902 6.77967 4.35076 10.0005 4.35076Z" fill="black"/>
<path fill-rule="evenodd" clip-rule="evenodd" d="M10.0014 2.80005L10.0016 2.80005C13.8018 2.80225 17.2788 5.41835 19.1159 9.58831L19.1159 9.58833C19.2291 9.8452 19.2291 10.1546 19.1159 10.4114C17.2789 14.5815 13.8016 17.1982 10.0013 17.2H10.0011C6.19941 17.1978 2.7219 14.5795 0.885514 10.4074L0.885497 10.4074C0.772516 10.1506 0.772472 9.84112 0.885789 9.58431C2.7242 5.41547 6.20114 2.80034 10.0014 2.80005ZM18.9329 10.3308C19.0234 10.1254 19.0234 9.87448 18.9329 9.66894C17.1193 5.55222 13.7034 3.00219 10.0015 3.00005C6.29955 3.00033 2.88373 5.54936 1.06879 9.66501C0.978153 9.87041 0.978153 10.1213 1.06857 10.3269C2.88153 14.4457 6.29793 16.9979 10.0012 17C13.7032 16.9982 17.1193 14.4477 18.9329 10.3308ZM10.0012 4.55081C13.101 4.55233 15.9928 6.60483 17.6364 10.0003ZM17.6364 10.0003C15.9929 13.3956 13.1013 15.4476 10.0018 15.4494C6.90118 15.4478 4.00835 13.394 2.36498 9.99641C4.00954 6.60218 6.90165 4.55085 10.0011 4.55081M17.8582 10.0003C16.1973 6.50178 13.2223 4.35234 10.0012 4.35081C6.78046 4.35081 3.805 6.49907 2.14319 9.99633C3.80374 13.497 6.7799 15.6478 10.0018 15.6494C13.2226 15.6476 16.1975 13.4986 17.8582 10.0003Z" fill="black"/>
<path fill-rule="evenodd" clip-rule="evenodd" d="M9.99844 11.8C11.0932 11.8 11.8984 10.9493 11.8984 10C11.8984 9.05071 11.0932 8.2 9.99844 8.2C8.90363 8.2 8.09844 9.05071 8.09844 10C8.09844 10.9493 8.90363 11.8 9.99844 11.8ZM9.99844 13.5C11.9867 13.5 13.5984 11.933 13.5984 10C13.5984 8.067 11.9867 6.5 9.99844 6.5C8.01021 6.5 6.39844 8.067 6.39844 10C6.39844 11.933 8.01021 13.5 9.99844 13.5Z" fill="black"/>
</svg>
