<svg width="382" height="376" viewBox="0 0 382 376" fill="none" xmlns="http://www.w3.org/2000/svg">
<g filter="url(#filter0_di_1332_20260)">
<path d="M46 67.2548C46 36.022 46 20.4056 55.7028 10.7028C65.4056 1 81.0219 1 112.255 1H270.068C301.301 1 316.917 1 326.62 10.7028C336.323 20.4056 336.323 36.0219 336.323 67.2547V184.001C336.323 215.234 336.323 230.85 326.62 240.553C316.917 250.256 301.301 250.256 270.068 250.256H147.297C143.644 250.256 141.818 250.256 140.683 251.39C139.548 252.525 139.548 254.352 139.548 258.004V272.142C139.548 279.417 139.548 283.054 137.292 284.092C135.036 285.129 132.275 282.76 126.754 278.024L95.9111 251.563C95.4815 251.195 95.2668 251.01 95.0347 250.862C94.5695 250.566 94.0465 250.372 93.5005 250.295C93.2281 250.256 92.9451 250.256 92.3791 250.256C80.0465 250.256 73.8802 250.256 68.8898 248.634C58.8051 245.357 50.8985 237.451 47.6216 227.366C46 222.375 46 216.209 46 203.876V67.2548Z" fill="#EBEBEB"/>
</g>
<g filter="url(#filter1_f_1332_20260)">
<line x1="77.8367" y1="49.5732" x2="77.8367" y2="202.107" stroke="white" stroke-width="10.2906"/>
</g>
<g filter="url(#filter2_f_1332_20260)">
<line x1="302.825" y1="50.8445" x2="302.825" y2="203.378" stroke="white" stroke-width="10.2906"/>
</g>
<g filter="url(#filter3_f_1332_20260)">
<line x1="101.93" y1="18.1281" x2="274.801" y2="18.1281" stroke="white" stroke-width="8.41955"/>
</g>
<g filter="url(#filter4_i_1332_20260)">
<path d="M190.895 121.597V130.754H168.306V121.597H190.895ZM171.447 99.2738V154.364H160.361V99.2738H171.447ZM198.916 99.2738V154.364H187.943V99.2738H198.916ZM219.461 99.2738V154.364H208.451V99.2738H219.461Z" fill="black"/>
</g>
<defs>
<filter id="filter0_di_1332_20260" x="0.614529" y="-14.8321" width="381.095" height="389.935" filterUnits="userSpaceOnUse" color-interpolation-filters="sRGB">
<feFlood flood-opacity="0" result="BackgroundImageFix"/>
<feColorMatrix in="SourceAlpha" type="matrix" values="0 0 0 0 0 0 0 0 0 0 0 0 0 0 0 0 0 0 127 0" result="hardAlpha"/>
<feOffset dy="45.3855"/>
<feGaussianBlur stdDeviation="22.6927"/>
<feColorMatrix type="matrix" values="0 0 0 0 0 0 0 0 0 0 0 0 0 0 0 0 0 0 0.15 0"/>
<feBlend mode="normal" in2="BackgroundImageFix" result="effect1_dropShadow_1332_20260"/>
<feBlend mode="normal" in="SourceGraphic" in2="effect1_dropShadow_1332_20260" result="shape"/>
<feColorMatrix in="SourceAlpha" type="matrix" values="0 0 0 0 0 0 0 0 0 0 0 0 0 0 0 0 0 0 127 0" result="hardAlpha"/>
<feOffset dy="-15.8321"/>
<feGaussianBlur stdDeviation="15.8321"/>
<feComposite in2="hardAlpha" operator="arithmetic" k2="-1" k3="1"/>
<feColorMatrix type="matrix" values="0 0 0 0 0 0 0 0 0 0 0 0 0 0 0 0 0 0 0.25 0"/>
<feBlend mode="normal" in2="shape" result="effect2_innerShadow_1332_20260"/>
</filter>
<filter id="filter1_f_1332_20260" x="59.5943" y="36.4762" width="36.4832" height="178.728" filterUnits="userSpaceOnUse" color-interpolation-filters="sRGB">
<feFlood flood-opacity="0" result="BackgroundImageFix"/>
<feBlend mode="normal" in="SourceGraphic" in2="BackgroundImageFix" result="shape"/>
<feGaussianBlur stdDeviation="6.54854" result="effect1_foregroundBlur_1332_20260"/>
</filter>
<filter id="filter2_f_1332_20260" x="284.583" y="37.7474" width="36.4832" height="178.728" filterUnits="userSpaceOnUse" color-interpolation-filters="sRGB">
<feFlood flood-opacity="0" result="BackgroundImageFix"/>
<feBlend mode="normal" in="SourceGraphic" in2="BackgroundImageFix" result="shape"/>
<feGaussianBlur stdDeviation="6.54854" result="effect1_foregroundBlur_1332_20260"/>
</filter>
<filter id="filter3_f_1332_20260" x="88.8326" y="0.821256" width="199.065" height="34.6137" filterUnits="userSpaceOnUse" color-interpolation-filters="sRGB">
<feFlood flood-opacity="0" result="BackgroundImageFix"/>
<feBlend mode="normal" in="SourceGraphic" in2="BackgroundImageFix" result="shape"/>
<feGaussianBlur stdDeviation="6.54854" result="effect1_foregroundBlur_1332_20260"/>
</filter>
<filter id="filter4_i_1332_20260" x="160.359" y="67.2724" width="59.1016" height="87.0911" filterUnits="userSpaceOnUse" color-interpolation-filters="sRGB">
<feFlood flood-opacity="0" result="BackgroundImageFix"/>
<feBlend mode="normal" in="SourceGraphic" in2="BackgroundImageFix" result="shape"/>
<feColorMatrix in="SourceAlpha" type="matrix" values="0 0 0 0 0 0 0 0 0 0 0 0 0 0 0 0 0 0 127 0" result="hardAlpha"/>
<feOffset dy="-32.0015"/>
<feGaussianBlur stdDeviation="16.0007"/>
<feComposite in2="hardAlpha" operator="arithmetic" k2="-1" k3="1"/>
<feColorMatrix type="matrix" values="0 0 0 0 0 0 0 0 0 0 0 0 0 0 0 0 0 0 0.25 0"/>
<feBlend mode="normal" in2="shape" result="effect1_innerShadow_1332_20260"/>
</filter>
</defs>
</svg>
