<svg width="24" height="24" viewBox="0 0 24 24" fill="none" xmlns="http://www.w3.org/2000/svg">
<path d="M15.583 13.4615L14.3694 14.6366L10.9703 17.9271C9.63924 19.2154 7.47271 19.2154 6.14104 17.9266C4.80947 16.6378 4.80971 14.5407 6.14104 13.2517L8.0837 11.3709L13.8718 5.7676C14.7821 4.88637 16.2641 4.88637 17.1744 5.7676C18.0847 6.64916 18.0847 8.08329 17.1744 8.96482L13.45 12.5703L11.9816 13.9916L10.0675 15.8449C9.5902 16.3069 8.81355 16.3064 8.33656 15.8449C7.8593 15.3829 7.8593 14.6308 8.33656 14.1688L11.1115 11.4826L11.7189 10.8944L14.3131 8.38326L13.5042 7.60056L10.3029 10.6996L7.52775 13.3866C6.60511 14.2796 6.60485 15.7338 7.52775 16.6278C8.45091 17.5212 9.95318 17.5212 10.8758 16.6278L12.6213 14.9377L14.2583 13.353L17.9827 9.74734C19.3391 8.43444 19.3391 6.29807 17.9827 4.98486C16.6265 3.67171 14.4194 3.67171 13.0631 4.98486L10.2173 7.74048L7.3784 10.4887L5.33293 12.4691C3.55569 14.1893 3.55569 16.9892 5.33293 18.7094C7.11017 20.4302 10.0019 20.4302 11.7793 18.7094L16.3916 14.2444L18.6474 12.0608L17.8392 11.2778L15.583 13.4615Z" fill="#767676"/>
</svg>
