<svg width="24" height="24" viewBox="0 0 24 24" fill="none" xmlns="http://www.w3.org/2000/svg">
<rect x="2.5" y="4.5" width="19" height="15" rx="1.5" stroke="#767676"/>
<path fill-rule="evenodd" clip-rule="evenodd" d="M18.7744 12.2429C17.7278 11.1788 16.6587 10.136 15.6385 9.04643C15.1833 8.55965 14.8662 8.52932 14.3913 9.03191C13.2694 10.2221 12.0942 11.3615 10.943 12.5249C9.74169 13.7391 9.7407 13.7435 8.50357 12.5938C8.23959 12.3479 7.99809 12.0857 7.64207 12.4486C6.75697 13.3488 5.84075 14.221 4.99614 15.1596C4.50808 15.7035 4.62687 16.4423 4.82127 17.0584C4.98289 17.5707 5.56342 17.3586 5.96409 17.3618C7.96035 17.381 9.95703 17.3709 11.9534 17.3709V17.3652C14.0925 17.3652 16.2318 17.3704 18.3708 17.3605C18.7234 17.3591 19.2309 17.453 19.2488 16.9236C19.2944 15.598 19.2718 14.269 19.2494 12.942C19.2441 12.6386 18.9751 12.4461 18.7745 12.2428L18.7744 12.2429Z" fill="#767676"/>
<path fill-rule="evenodd" clip-rule="evenodd" d="M6.6451 10.6601C7.70008 10.6666 8.63681 9.74144 8.64146 8.68647C8.64645 7.64584 7.78077 6.77351 6.72807 6.75899C5.61691 6.74392 4.76865 7.57332 4.74261 8.70156C4.71956 9.69972 5.64658 10.6544 6.64513 10.6601H6.6451Z" fill="#767676"/>
</svg>
