<svg width="17" height="18" viewBox="0 0 17 18" fill="none" xmlns="http://www.w3.org/2000/svg">
<path d="M8.28981 8.99998C9.2978 8.99998 10.4225 9.17012 11.663 9.51135C13.0361 9.8975 14.1665 10.3974 15.053 11.011C16.0723 11.7384 16.5928 12.5336 16.6154 13.3977C15.7144 14.7789 14.4934 15.9144 13.0596 16.7048C11.6169 17.5572 9.97679 18.0043 8.30769 18C6.64559 18 5.0616 17.5679 3.55573 16.7048C2.12137 15.9153 0.900253 14.7795 0 13.3977C0.022588 12.5336 0.543054 11.7384 1.56234 11.011C2.42633 10.3974 3.54538 9.8975 4.91854 9.51135C6.159 9.17012 7.2837 8.99998 8.29169 8.99998H8.28981ZM8.30675 0C8.9891 0 9.63003 0.178738 10.2296 0.535258C10.8291 0.891778 11.3044 1.37542 11.6564 1.98428C12.0074 2.59313 12.1834 3.24405 12.1834 3.93702C12.1834 4.62998 12.0074 5.2809 11.6564 5.88975C11.3053 6.49861 10.8291 6.9813 10.2296 7.33877C9.63003 7.69625 8.9891 7.87403 8.30675 7.87403C7.6244 7.87403 6.98347 7.69529 6.38394 7.33877C5.78442 6.98225 5.30913 6.49861 4.95713 5.88975C4.60608 5.2809 4.43008 4.62998 4.43008 3.93702C4.43008 3.24405 4.60608 2.59313 4.95713 1.98428C5.30819 1.37542 5.78442 0.892734 6.38394 0.535258C6.98347 0.177782 7.6244 0 8.30675 0Z" fill="black"/>
</svg>
