<svg width="20" height="20" viewBox="0 0 20 20" fill="none" xmlns="http://www.w3.org/2000/svg">
<path d="M18.2271 1.71617C17.9457 1.49469 17.5106 1.39081 17.1092 1.49693L8.73639 4.49162C8.0304 4.67618 7.4767 5.37755 7.4767 6.08814V6.86795H3.60543C1.89357 6.86795 0.5 8.26605 0.5 9.98249C0.5 11.6989 1.89349 13.0879 3.60543 13.0879H3.79923V17.1939C3.79923 18.4674 4.83281 19.501 6.10634 19.501C7.37986 19.501 8.39961 18.4674 8.39961 17.1939V15.3443C8.50574 15.3997 8.61648 15.4505 8.73184 15.4828L17.1184 18.4821C17.2338 18.5098 17.3491 18.5283 17.4645 18.5283C17.7275 18.5283 17.9766 18.4498 18.1797 18.2929C18.4519 18.0807 18.6088 17.7439 18.6088 17.3701V2.6046C18.6088 2.22163 18.4565 1.89401 18.1797 1.67713L18.2271 1.71617ZM1.42747 9.98241C1.42747 8.77349 2.40568 7.79067 3.61001 7.79067H7.4766V12.165H3.60533C2.40101 12.165 1.42279 11.1867 1.42279 9.98241H1.42747ZM7.47665 17.1891C7.47665 17.9505 6.86295 18.5734 6.10621 18.5734C5.34948 18.5734 4.72195 17.9551 4.72195 17.1891V13.0832H7.47202V17.1891H7.47665ZM17.6858 17.3561C17.6858 17.4207 17.6719 17.5037 17.612 17.5499C17.5566 17.596 17.4597 17.6052 17.3536 17.5775L8.97141 14.5828C8.67147 14.5044 8.39925 14.163 8.39925 13.863V6.08358C8.39925 5.7975 8.6761 5.45605 8.97604 5.37759L17.3488 2.38291C17.395 2.37368 17.4365 2.36445 17.4734 2.36445C17.5334 2.36445 17.5842 2.37829 17.6165 2.40598C17.6764 2.45212 17.6857 2.53979 17.6857 2.60439V17.3605L17.6858 17.3561Z" fill="black"/>
<path fill-rule="evenodd" clip-rule="evenodd" d="M17.6165 2.40598C17.5842 2.37829 17.5334 2.36445 17.4734 2.36445C17.4402 2.36445 17.4033 2.37191 17.3627 2.38012C17.3581 2.38104 17.3535 2.38197 17.3488 2.38291L8.97604 5.37759C8.6761 5.45605 8.39925 5.7975 8.39925 6.08358V13.863C8.39925 14.163 8.67147 14.5044 8.97141 14.5828L17.3536 17.5775C17.4597 17.6052 17.5566 17.596 17.612 17.5499C17.6687 17.5062 17.6841 17.4296 17.6857 17.3668C17.6857 17.3647 17.6857 17.3626 17.6858 17.3605C17.6858 17.359 17.6858 17.3575 17.6858 17.3561L17.6858 17.3605L17.6857 2.60439C17.6857 2.53979 17.6764 2.45212 17.6165 2.40598ZM17.1857 16.9866V2.97228L9.12378 5.85577L9.10256 5.86132C9.07922 5.86743 9.02003 5.89832 8.96275 5.9686C8.9369 6.00033 8.91904 6.03121 8.90866 6.05608C8.90111 6.07419 8.89952 6.08417 8.89925 6.08587V13.863C8.89925 13.8628 8.89924 13.8664 8.90083 13.874C8.90243 13.8816 8.9054 13.8921 8.91062 13.9051C8.92133 13.9318 8.93913 13.9633 8.96411 13.9947C9.01936 14.0641 9.07615 14.0934 9.09792 14.0991L9.11906 14.1046L17.1857 16.9866ZM1.42747 9.98241H1.42279C1.42279 10.0307 1.42437 10.0787 1.42747 10.1262C1.43541 10.2479 1.45335 10.3669 1.48047 10.4824C1.70684 11.4462 2.57302 12.165 3.60533 12.165H7.4766V7.79067H3.61001C2.40568 7.79067 1.42747 8.77349 1.42747 9.98241ZM6.9766 8.29067H3.61001C2.68388 8.29067 1.92747 9.04757 1.92747 9.98241V10.1086C1.99214 10.978 2.71959 11.665 3.60533 11.665H6.9766V8.29067ZM18.227 1.71634C18.2284 1.71753 18.2297 1.71872 18.2311 1.71992C18.4753 1.93598 18.6088 2.24603 18.6088 2.6046V17.3701C18.6088 17.7439 18.4519 18.0807 18.1797 18.2929C17.9766 18.4498 17.7275 18.5283 17.4645 18.5283C17.3491 18.5283 17.2338 18.5098 17.1184 18.4821L8.73184 15.4828C8.61648 15.4505 8.50574 15.3997 8.39961 15.3443V17.1939C8.39961 18.4674 7.37986 19.501 6.10634 19.501C4.83281 19.501 3.79923 18.4674 3.79923 17.1939V13.0879H3.60543C1.89349 13.0879 0.5 11.6989 0.5 9.98249C0.5 8.26605 1.89357 6.86795 3.60543 6.86795H7.4767V6.08814C7.4767 5.37755 8.0304 4.67618 8.73639 4.49162L17.1092 1.49693C17.4856 1.39742 17.8916 1.48256 18.1728 1.67618C18.1744 1.6773 18.1761 1.67842 18.1777 1.67955C18.1777 1.67954 18.1777 1.67957 18.1777 1.67955C18.1934 1.69052 18.2088 1.70188 18.2238 1.71352C18.2248 1.71446 18.2259 1.7154 18.227 1.71634ZM18.221 1.71114C18.2219 1.71193 18.2228 1.71273 18.2238 1.71352C18.2248 1.71446 18.2259 1.7154 18.227 1.71634L18.221 1.71114ZM18.1797 1.67713L18.221 1.71114C18.2076 1.69952 18.1938 1.68818 18.1797 1.67713ZM18.5447 1.33004C18.9165 1.64924 19.1088 2.10727 19.1088 2.6046V17.3701C19.1088 17.8837 18.8917 18.3718 18.4871 18.6873L18.4854 18.6886C18.187 18.9192 17.8278 19.0283 17.4645 19.0283C17.2968 19.0283 17.1401 19.0015 17.0017 18.9683L16.9755 18.962L8.89961 16.0738V17.1939C8.89961 18.7396 7.65992 20.001 6.10634 20.001C4.55667 20.001 3.29923 18.7435 3.29923 17.1939V13.5751C1.45431 13.4196 0 11.8721 0 9.98249C0 7.99133 1.616 6.36795 3.60543 6.36795H6.9767V6.08814C6.9767 5.14912 7.68075 4.26251 8.58717 4.01397L16.9608 1.01897L16.9814 1.01353C17.513 0.873019 18.0839 0.994438 18.4864 1.28554L18.488 1.28351C18.5068 1.29825 18.5252 1.31333 18.5432 1.32873L18.5447 1.33004ZM6.97202 17.2806V13.5832H5.22195V17.1891C5.22195 17.6768 5.62346 18.0734 6.10621 18.0734C6.55145 18.0734 6.92653 17.7278 6.97202 17.2806ZM7.38401 17.6891C7.18516 18.2053 6.68795 18.5734 6.10621 18.5734C5.34948 18.5734 4.72195 17.9551 4.72195 17.1891V13.0832H7.47202V17.1891H7.47665C7.47665 17.2275 7.47509 17.2656 7.47202 17.3032C7.46104 17.4381 7.43078 17.5677 7.38401 17.6891Z" fill="black"/>
</svg>
