<svg width="24" height="24" viewBox="0 0 24 24" fill="none" xmlns="http://www.w3.org/2000/svg">
<path fill-rule="evenodd" clip-rule="evenodd" d="M5 3C3.89543 3 3 3.89543 3 5V11C3 12.1046 3.89543 13 5 13H7C8.10457 13 9 12.1046 9 11V5C9 3.89543 8.10457 3 7 3H5ZM13 3C11.8954 3 11 3.89543 11 5V7C11 8.10457 11.8954 9 13 9H19C20.1046 9 21 8.10457 21 7V5C21 3.89543 20.1046 3 19 3H13ZM11 13C11 11.8954 11.8954 11 13 11H19C20.1046 11 21 11.8954 21 13V19C21 20.1046 20.1046 21 19 21H13C11.8954 21 11 20.1046 11 19V13ZM5 15C3.89543 15 3 15.8954 3 17V19C3 20.1046 3.89543 21 5 21H7C8.10457 21 9 20.1046 9 19V17C9 15.8954 8.10457 15 7 15H5Z" fill="black"/>
</svg>
